<svg width="19" height="18" viewBox="0 0 19 18" fill="none" xmlns="http://www.w3.org/2000/svg">
<path d="M3.94 1.99992C3.93982 2.398 3.82085 2.78697 3.59832 3.11705C3.37579 3.44712 3.05982 3.70327 2.69086 3.85273C2.3219 4.00218 1.91674 4.03812 1.52723 3.95596C1.13772 3.87381 0.781587 3.67728 0.50442 3.39154C0.227254 3.1058 0.0416624 2.74385 -0.0285982 2.35202C-0.0988587 1.96019 -0.0505915 1.55631 0.110025 1.19207C0.270642 0.827829 0.5363 0.519807 0.872995 0.307429C1.20969 0.0950517 1.6021 -0.0120184 2 -7.60531e-05C2.51997 0.0155299 3.01339 0.233113 3.37559 0.606508C3.73778 0.979903 3.94024 1.47972 3.94 1.99992ZM4 5.47992H3.44217e-06V17.9999H4V5.47992ZM10.32 5.47992H6.34V17.9999H10.28V11.4299C10.28 7.76992 15.05 7.42992 15.05 11.4299V17.9999H19V10.0699C19 3.89992 11.94 4.12992 10.28 7.15992L10.32 5.47992Z" fill="#959DA5"/>
</svg>
