<svg width="16" height="18" viewBox="0 0 16 18" fill="none" xmlns="http://www.w3.org/2000/svg">
<path d="M8.39378 0.015C9.37628 0 10.3513 0.0075 11.3263 0C11.3863 1.1475 11.7988 2.3175 12.6388 3.1275C13.4788 3.96 14.6638 4.3425 15.8188 4.47V7.4925C14.7388 7.455 13.6513 7.23 12.6688 6.765C12.2413 6.57 11.8438 6.3225 11.4538 6.0675C11.4463 8.2575 11.4613 10.4475 11.4388 12.63C11.3788 13.68 11.0338 14.7225 10.4263 15.585C9.44378 17.025 7.74128 17.9625 5.99378 17.9925C4.92128 18.0525 3.84878 17.76 2.93378 17.22C1.41878 16.3275 0.353779 14.6925 0.196279 12.9375C0.181279 12.5625 0.173779 12.1875 0.188779 11.82C0.323779 10.395 1.02878 9.03 2.12378 8.1C3.36878 7.02 5.10878 6.5025 6.73628 6.81C6.75128 7.92 6.70628 9.03 6.70628 10.14C5.96378 9.9 5.09378 9.9675 4.44128 10.4175C3.96878 10.725 3.60878 11.1975 3.42128 11.73C3.26378 12.1125 3.30878 12.5325 3.31628 12.9375C3.49628 14.1675 4.68128 15.2025 5.94128 15.09C6.78128 15.0825 7.58378 14.595 8.01878 13.8825C8.16128 13.635 8.31878 13.38 8.32628 13.0875C8.40128 11.745 8.37128 10.41 8.37878 9.0675C8.38628 6.045 8.37128 3.03 8.39378 0.015Z" fill="#959DA5"/>
</svg>
