<svg width="22" height="18" viewBox="0 0 22 18" fill="none" xmlns="http://www.w3.org/2000/svg">
<path d="M22 2.11571C21.1778 2.48233 20.3043 2.72104 19.4099 2.82357C20.3537 2.26199 21.0601 1.37534 21.3967 0.329968C20.5082 0.854411 19.5372 1.22432 18.525 1.42394C17.9059 0.764394 17.1027 0.306183 16.2199 0.108764C15.337 -0.088655 14.4152 -0.0161679 13.5741 0.316819C12.7329 0.649806 12.0113 1.22792 11.5028 1.97614C10.9943 2.72435 10.7225 3.60813 10.7225 4.51278C10.7215 4.85957 10.762 5.20524 10.8431 5.5424C9.04843 5.45145 7.29277 4.98492 5.68965 4.17297C4.08653 3.36102 2.67162 2.22171 1.53638 0.828688C0.958857 1.82239 0.782115 2.99897 1.04219 4.1185C1.30227 5.23803 1.97958 6.2162 2.93601 6.85355C2.21991 6.83084 1.51952 6.63782 0.89287 6.29048V6.34679C0.892853 7.3887 1.25332 8.39853 1.9131 9.20493C2.57287 10.0113 3.49133 10.5646 4.51261 10.7709C4.12481 10.8778 3.72438 10.9319 3.32212 10.9318C3.03613 10.9293 2.75088 10.9024 2.46947 10.8514C2.75802 11.748 3.31924 12.5322 4.07484 13.0946C4.83044 13.6569 5.74274 13.9694 6.68446 13.9885C5.08433 15.2413 3.11013 15.9211 1.07788 15.919C0.717662 15.9178 0.357796 15.8964 0 15.8546C2.06354 17.1803 4.46505 17.884 6.91773 17.8817C15.219 17.8817 19.7558 11.0042 19.7558 5.04368C19.7558 4.85063 19.7477 4.64953 19.7397 4.45648C20.6263 3.81688 21.3918 3.0242 22 2.11571Z" fill="#959DA5"/>
</svg>
