<svg width="23" height="16" viewBox="0 0 23 16" fill="none" xmlns="http://www.w3.org/2000/svg">
<path d="M22.0823 2.50589C21.9581 2.02674 21.7102 1.58866 21.3633 1.23557C21.0164 0.882477 20.5828 0.626784 20.1059 0.494123C18.3412 5.68014e-06 11.2706 5.682e-06 11.2706 5.682e-06C8.32229 -0.0354252 5.37484 0.121772 2.44705 0.470594C1.97001 0.61295 1.53711 0.874532 1.18924 1.23064C0.841359 1.58675 0.589974 2.02565 0.458814 2.50589C0.142504 4.31994 -0.0110477 6.15862 -9.77027e-06 8.00001C-0.0118047 9.84142 0.141753 11.6802 0.458814 13.4941C0.587275 13.9731 0.838117 14.4104 1.1867 14.7631C1.53529 15.1158 1.96962 15.3718 2.44705 15.5059C4.23528 16 11.2706 16 11.2706 16C14.2228 16.0355 17.1741 15.8783 20.1059 15.5294C20.5828 15.3968 21.0164 15.1411 21.3633 14.788C21.7102 14.4349 21.9581 13.9968 22.0823 13.5177C22.4067 11.7045 22.5642 9.86544 22.5529 8.02354C22.5772 6.17334 22.4196 4.32524 22.0823 2.50589ZM9.02352 11.4235V4.57648L14.9059 8.00001L9.02352 11.4235Z" fill="#959DA5"/>
</svg>
