<svg width="170" height="44" viewBox="0 0 170 44" fill="none" xmlns="http://www.w3.org/2000/svg">
<g clip-path="url(#clip0_1_6238)">
<path d="M107.834 15.5028C106.869 15.7593 105.999 15.9142 104.918 16.0296V16.3582C106.134 16.3582 106.289 16.4942 106.289 17.4993V20.8781C105.574 19.7193 105.014 19.3724 103.972 19.3724C101.906 19.3724 100.46 21.3221 100.46 24.1038C100.46 26.8855 101.926 28.8369 104.03 28.8369C105.131 28.8369 105.884 28.3357 106.424 27.254C106.501 27.9872 106.502 28.0643 106.695 28.7986C107.486 28.5472 107.814 28.4695 108.954 28.3346L109.242 28.2952V27.9672C107.949 27.9289 107.834 27.8317 107.834 26.654V15.5028ZM55.7431 15.6433C55.1343 15.7141 54.5217 15.7467 53.9088 15.741C53.3677 15.741 53.0785 15.7222 52.3265 15.6639V16.145C53.6579 16.2228 53.9277 16.4159 53.9277 17.305V17.4216L53.5219 26.9049C53.4837 27.9483 53.2917 28.102 51.9403 28.1992V28.6632C52.9448 28.5854 53.3288 28.5666 53.8694 28.5666C54.4105 28.5666 54.7956 28.5854 55.7813 28.6632V28.1992C54.4294 28.102 54.1785 27.9283 54.1785 27.0786V26.9049L54.5648 16.8805L57.7305 25.4375L57.9625 26.1129L58.2339 26.8655L58.5036 27.6197L58.7167 28.2386H59.007L59.2179 27.6009L59.4687 26.8655L59.7384 26.1523L59.9704 25.5129L63.1567 16.8993L63.3304 26.9049V27.0015C63.3304 27.9095 63.0412 28.1215 61.7276 28.1992V28.6632C62.9441 28.5472 63.407 28.5089 64.1412 28.5089C64.8738 28.5089 65.3378 28.5472 66.5543 28.6632V28.1992C65.1641 28.102 64.9898 27.9483 64.9709 26.9049L64.7595 17.4216V17.2862C64.7595 16.4165 65.0486 16.2233 66.3618 16.145V15.6639C65.6281 15.7222 65.3189 15.741 64.8367 15.741C64.2572 15.741 63.8527 15.721 62.9835 15.6433L59.335 25.4181L55.7431 15.6433ZM130.843 15.7205V16.205C132.232 16.2816 132.426 16.4353 132.426 17.4787V26.846C132.426 27.8895 132.272 28.0237 130.843 28.1403V28.6043H135.728C137.156 28.6043 137.928 28.4306 138.739 27.9289C139.705 27.3106 140.341 26.1312 140.341 24.9141C140.341 23.8718 139.897 22.9261 139.144 22.3467C138.738 22.0381 138.313 21.8633 137.619 21.7278C139.009 21.2067 139.744 20.2216 139.744 18.8701C139.744 17.8644 139.318 16.9753 138.584 16.4159C137.928 15.933 137.175 15.7199 135.92 15.7199L130.843 15.7205ZM134.048 16.3205H135.688C137.311 16.3205 138.024 17.1113 138.024 18.9084C138.024 19.7964 137.813 20.4341 137.388 20.9364C136.964 21.4193 136.442 21.5741 135.36 21.5741H134.048V16.3205ZM89.6455 19.0821L89.1232 20.0667C88.5055 19.4679 87.9843 19.2553 87.1546 19.2553C84.8764 19.2553 83.3313 21.2267 83.3313 24.1038C83.3313 26.9238 84.857 28.818 87.0964 28.818C88.8346 28.818 89.934 27.6963 90.1849 25.6295H89.3929C89.1615 27.3295 88.4466 28.1803 87.2489 28.1803C85.7632 28.1803 85.0107 26.8089 85.0107 24.1038C85.0107 21.3415 85.8615 19.7781 87.3089 19.7781C88.4872 19.7781 89.2003 20.5884 89.5472 22.2684H89.9735V19.0821H89.6455ZM124.238 19.1404L123.91 19.9313C123.254 19.4879 122.695 19.3141 121.942 19.3141C120.242 19.3141 119.046 20.357 119.046 21.8833C119.046 23.0032 119.491 23.5438 120.899 24.2015L121.787 24.6055L122.52 24.9341C123.466 25.3592 123.834 25.8032 123.834 26.4598C123.834 27.4455 122.984 28.1992 121.845 28.1992C120.494 28.1992 119.682 27.3495 119.334 25.5918L118.911 25.6106V28.8369H119.258L119.72 27.9672C120.454 28.5466 121.149 28.7786 122.038 28.7786C123.853 28.7786 125.147 27.6209 125.147 25.9975C125.147 24.8581 124.624 24.2392 123.158 23.6021L122.347 23.2547C120.589 22.4821 120.301 22.2318 120.301 21.4587C120.301 20.5507 121.092 19.8553 122.115 19.8553C123.331 19.8553 123.968 20.5896 124.142 22.1341H124.587V19.1399L124.238 19.1404ZM152.777 19.1404C152.007 19.4113 151.349 19.565 150.228 19.7199V20.0478C150.325 20.0478 150.423 20.0667 150.481 20.0667C151.446 20.0667 151.561 20.1838 151.58 20.9753V27.2335C151.58 28.0637 151.389 28.2186 150.211 28.2763V28.6632C151.215 28.566 151.619 28.5477 152.294 28.5477C152.99 28.5477 153.377 28.566 154.381 28.6632V28.2763C153.377 28.238 153.126 28.0443 153.126 27.2729V22.5964C153.126 21.013 153.82 20.1838 155.134 20.1838C156.368 20.1838 156.87 20.8593 156.87 22.5398V27.2729C156.87 28.0443 156.619 28.238 155.577 28.2763V28.6632C156.58 28.566 156.966 28.5477 157.681 28.5477C158.375 28.5477 158.763 28.566 159.787 28.6632V28.2763C158.609 28.2192 158.414 28.0637 158.414 27.2335V22.5964C158.414 21.8633 158.318 21.3221 158.124 20.8593C157.739 19.9124 156.735 19.3141 155.577 19.3141C154.458 19.3141 153.665 19.7776 152.969 20.821C152.93 20.0867 152.874 19.585 152.777 19.1404ZM78.4759 19.1781C77.6833 19.4096 77.0274 19.5267 75.9268 19.6233V19.9707H76.1776C77.1811 19.9896 77.2788 20.0873 77.2976 20.9176V27.2335C77.2976 28.0637 77.0862 28.2186 75.9079 28.2763V28.6632C76.9702 28.566 77.3753 28.546 78.0708 28.546C78.7462 28.546 79.1519 28.566 80.2125 28.6632V28.2763C79.0353 28.2192 78.8422 28.0637 78.8422 27.2335V23.1964C78.8422 21.2833 79.4787 20.0684 80.4822 20.0684C80.8296 20.0684 81.0627 20.2598 81.0627 20.5313V20.7044L81.0233 20.8987C81.0044 20.9764 80.9856 21.053 80.9856 21.0907C80.9856 21.4781 81.333 21.7478 81.7776 21.7478C82.2599 21.7478 82.5884 21.3798 82.5884 20.8198C82.5884 19.8936 81.8736 19.2559 80.9084 19.2559C79.905 19.2559 79.0736 19.8936 78.6496 20.9947V20.7816C78.6102 20.2021 78.5719 19.8936 78.4759 19.1781ZM71.244 19.2559C68.9269 19.2559 67.48 21.129 67.48 24.1038C67.48 27.078 68.9269 28.818 71.4171 28.818C73.3091 28.818 74.5445 27.6386 74.796 25.6489H74.0245C73.7925 27.2912 72.9428 28.1803 71.572 28.1803C69.8154 28.1803 69.0435 26.8289 69.0246 23.8147H74.7771C74.7388 20.8404 73.5223 19.2559 71.244 19.2559ZM95.3254 19.2559C93.0083 19.2559 91.5603 21.129 91.5603 24.1038C91.5603 27.078 93.0083 28.818 95.4985 28.818C97.3905 28.818 98.6271 27.6386 98.8773 25.6489H98.1048C97.8734 27.2912 97.0242 28.1803 95.6534 28.1803C93.8968 28.1803 93.1237 26.8289 93.1043 23.8147H98.8585C98.8191 20.8404 97.6036 19.2559 95.3254 19.2559ZM113.739 19.2559C111.422 19.2559 109.974 21.129 109.974 24.1038C109.974 27.078 111.422 28.818 113.913 28.818C115.805 28.818 117.04 27.6386 117.291 25.6489H116.518C116.286 27.2912 115.438 28.1803 114.067 28.1803C112.311 28.1803 111.538 26.8289 111.518 23.8147H117.273C117.233 20.8404 116.017 19.2559 113.739 19.2559ZM145.674 19.2559C143.357 19.2559 141.909 21.129 141.909 24.1038C141.909 27.078 143.357 28.818 145.848 28.818C147.74 28.818 148.975 27.6386 149.226 25.6489H148.453C148.222 27.2912 147.374 28.1803 146.004 28.1803C144.246 28.1803 143.474 26.8289 143.455 23.8147H149.208C149.168 20.8404 147.953 19.2559 145.674 19.2559ZM161.194 19.4873L160.747 21.9987H161.135C161.83 20.2604 162.138 19.9896 163.394 19.9896H165.767L160.536 28.6049H167.176L167.68 25.8238H167.275C166.694 27.5815 166.155 28.1026 164.84 28.1026H162.583L167.834 19.4873H161.194ZM71.2251 19.7576C72.48 19.7576 73.1165 20.8393 73.2331 23.1192H69.0623C69.2555 20.8981 69.9892 19.7576 71.2251 19.7576ZM95.3048 19.7576C96.5597 19.7576 97.1968 20.8393 97.3128 23.1192H93.142C93.3351 20.8981 94.0688 19.7576 95.3048 19.7576ZM113.72 19.7576C114.975 19.7576 115.612 20.8393 115.728 23.1192H111.558C111.75 20.8981 112.485 19.7576 113.72 19.7576ZM145.655 19.7576C146.91 19.7576 147.547 20.8393 147.663 23.1192H143.493C143.685 20.8981 144.42 19.7576 145.655 19.7576ZM104.146 19.9119C105.574 19.9119 106.308 21.3815 106.308 24.2204C106.308 26.9055 105.594 28.2952 104.204 28.2952C102.814 28.2952 102.081 26.8472 102.081 24.0849C102.081 21.2838 102.756 19.9119 104.146 19.9119ZM134.048 22.1735H135.882C136.905 22.1735 137.484 22.3461 137.928 22.7907C138.372 23.2352 138.622 24.0649 138.622 24.9924C138.622 26.9238 137.657 28.0066 135.939 28.0066H135.245C134.221 28.0066 134.048 27.8506 134.048 27.0009V22.1735ZM126.304 22.9392V23.9381H130.619V22.9392H126.304ZM22.0532 8.31029C22.0532 8.03315 21.9692 8.02401 21.9469 8.3L21.0635 21.4747L21.9424 21.989L22.0526 8.31086L22.0532 8.31029ZM17.9298 24.5524L21.6384 22.497L20.7961 22.0284L17.8258 24.4604C17.6601 24.6026 17.7344 24.6615 17.9298 24.5524Z" fill="#B7BFC7"/>
<path d="M22.1164 1.2544C10.3565 1.24868 0.818359 10.6943 0.818359 22.3353C0.818359 33.9762 10.3497 43.4121 22.1164 43.4161C33.8831 43.4196 43.4229 33.9762 43.4229 22.3353C43.4229 10.6937 33.8916 1.2544 22.1164 1.2544ZM22.1164 42.6133C14.113 42.6133 7.83312 38.451 4.84231 32.7277L5.30459 32.558C6.08172 33.826 7.09713 34.9408 8.46112 36.4476C10.1422 38.2956 15.4587 41.8647 22.1124 41.8647C25.4707 41.8769 28.7763 41.0301 31.7151 39.4048C34.6545 37.779 37.1296 35.4288 38.9053 32.5774C39.1739 32.502 39.2596 32.3854 39.1704 32.1517C40.7698 29.3329 41.8561 25.7918 41.8561 22.3313C41.8561 20.1519 41.5361 18.3787 41.0293 16.7942C40.7156 15.8181 40.3337 14.8653 39.8864 13.9428C39.8358 13.8614 39.8097 13.7672 39.811 13.6714C39.8916 13.7325 39.9567 13.8119 40.0007 13.9028C40.3098 14.4674 41.0024 15.8502 41.3275 16.7502C41.7664 17.9513 42.5481 19.6142 42.5481 22.3313C42.5527 33.4225 33.4711 42.6196 22.1164 42.6133ZM5.06173 32.2374L19.9775 21.5113L18.7016 20.7833L5.41258 31.8346C3.92003 29.1289 2.88347 25.6546 2.88347 22.3507C2.88347 11.888 11.2091 3.41723 21.7507 3.35266L19.0313 20.2741L20.3021 21.013L22.0107 3.35551C22.0427 3.13266 22.1952 3.13266 22.1952 3.35551L22.2958 21.9758L25.3226 20.1981L22.4221 3.34866C32.7831 3.62579 41.367 11.9863 41.367 22.3175C41.367 25.6489 40.3613 29.1289 38.8373 31.8517L25.562 20.789L24.2838 21.5193L38.5522 31.8717C38.895 32.1157 38.7899 32.2266 38.4253 32.0231L22.4026 22.7787V26.2432L38.4619 32.382C35.0962 37.8733 29.0254 41.3864 22.0752 41.3864C15.1096 41.3864 9.13653 37.8751 5.77087 32.3751L21.8587 26.2324V22.7684L5.1983 32.3968C4.80288 32.6146 4.69831 32.4928 5.06173 32.2374ZM4.65145 32.4431C3.94689 30.982 3.20461 28.9232 2.89719 27.2946C2.88233 27.2089 2.88576 27.1209 2.90862 27.0375C2.96005 27.1141 2.9989 27.1986 3.02576 27.2872C3.50861 28.782 3.93032 30.1266 5.03202 32.146L4.65145 32.4431ZM42.5178 18.7587C42.467 18.6852 42.4279 18.6042 42.4018 18.5187C40.8447 13.7142 39.5184 11.8268 36.9625 9.02001C33.5945 5.32406 28.0974 2.46638 22.2466 2.4601C11.0639 2.45895 1.99206 11.5377 1.99206 22.725C1.99206 26.0506 2.71719 28.9237 3.30004 30.3666C3.98289 32.0397 5.16516 34.2934 5.22402 34.3951C5.26573 34.478 5.28687 34.57 5.28687 34.6631C5.21007 34.6017 5.14536 34.5265 5.09602 34.4414C4.75716 33.9488 3.36804 31.446 2.93776 30.3517C1.99206 27.9712 1.29778 25.3741 1.29778 22.6484C1.29778 11.1183 10.6245 1.7681 22.1569 1.7681C32.4591 1.7681 40.7641 8.92801 42.5178 18.5119C42.535 18.5936 42.535 18.6776 42.5178 18.7587Z" fill="#B7BFC7"/>
<path d="M34.4784 29.3504L23.4985 21.9888L22.5957 22.5048L34.4258 29.4344C34.6361 29.5555 34.6807 29.4801 34.4784 29.3504Z" fill="#B7BFC7"/>
</g>
<defs>
<clipPath id="clip0_1_6238">
<rect width="169.141" height="43.9994" fill="white" transform="translate(0.109375 0.000488281)"/>
</clipPath>
</defs>
</svg>
