<svg width="74" height="32" viewBox="0 0 74 32" fill="none" xmlns="http://www.w3.org/2000/svg">
<g clip-path="url(#clip0_1_6243)">
<path d="M31.705 11.1678C35.1337 2.76048 28.7189 0.475098 24.5528 0.475098H10.7277C11.1301 0.727827 11.4261 1.11806 11.5601 1.57262C11.6942 2.02717 11.6571 2.5148 11.4558 2.94406L3.40034 28.5699C3.2076 29.0682 2.9167 29.5231 2.54472 29.9077C2.17274 30.2923 1.72719 30.5989 1.23438 30.8094H12.4143C11.9711 30.6755 11.5987 30.373 11.3778 29.9675C11.157 29.5622 11.1055 29.0864 11.2346 28.6434L14.1563 19.3731C14.1563 19.3731 27.6221 21.2089 31.6683 11.1678H31.705ZM20.8385 2.8339C22.304 2.8339 26.3686 3.03583 23.7325 10.6722C20.9676 18.6941 14.9121 17.0419 14.9121 17.0419L19.3823 2.8339H20.8292H20.8385Z" fill="#B7BFC7"/>
<path d="M40.6544 30.828H48.1846C45.4221 29.8172 42.9083 28.2306 40.811 26.1746C42.4736 24.6003 43.4805 22.4608 43.6315 20.181H39.7326C39.9589 20.3254 40.1454 20.5235 40.2756 20.7574C40.406 20.9912 40.476 21.2537 40.4793 21.5211C40.4511 22.5452 40.0996 23.5343 39.4746 24.3482C38.0546 22.4549 37.1069 20.2529 36.7096 17.9232C38.6355 17.1443 40.4488 16.1134 42.1015 14.8577C42.6802 14.4234 43.1596 13.8714 43.5076 13.2384C43.8556 12.6055 44.0645 11.9059 44.1199 11.1864V11.0762C44.1222 10.6267 44.0336 10.1813 43.8593 9.76668C43.6852 9.35193 43.429 8.97636 43.106 8.66236C42.4646 8.08981 41.6944 7.67923 40.8604 7.46519C40.0262 7.25115 39.1526 7.2399 38.3133 7.43244C37.0446 7.6848 35.8634 8.26033 34.8847 9.10288C32.6173 11.2323 32.3316 14.7292 32.3316 16.317V17.1614L31.9721 17.3082C30.3131 17.9232 25.8798 19.0888 24.3038 22.7234C23.9763 23.5569 23.8105 24.4444 23.8154 25.3393C23.7958 26.4425 24.0933 27.5285 24.6725 28.469C25.7876 30.2129 27.6863 31.3144 30.7187 31.2226C34.0183 31.1676 37.2719 28.928 37.8433 28.469C38.6814 29.3259 39.6083 30.092 40.6083 30.7545L40.6544 30.828ZM40.6544 10.5531C40.2673 12.9945 37.0876 15.4634 36.3133 15.7939C36.0764 13.9526 36.4553 12.0849 37.3916 10.4797C38.1474 9.3048 39.1705 8.79087 39.9907 9.08454C40.6544 9.31397 40.7189 9.91057 40.6637 10.5531H40.6544ZM36.2673 26.8904C35.088 27.5667 33.7897 28.0122 32.4423 28.2029C30.9214 28.3497 28.3961 27.7624 28.4145 24.7335C28.4145 22.1453 31.2348 20.2546 32.7741 19.5937C33.4718 22.2232 34.6598 24.6984 36.2765 26.8904H36.2673Z" fill="#B7BFC7"/>
<path d="M63.5208 2.86165C67.9909 1.78779 71.6775 5.27555 72.0094 5.51419L73.2813 1.47575C71.5209 0.943403 58.6818 -3.37958 49.6125 6.92766C44.0364 13.2698 42.6724 26.2572 49.7416 29.7449C57.3086 33.4713 65.6682 29.1759 66.3318 28.873L69.742 17.905C69.9188 17.2531 70.2609 16.6574 70.7353 16.1753C71.2099 15.6931 71.801 15.3406 72.4518 15.1514H60.47C61.0112 15.2997 61.4717 15.6547 61.7514 16.1395C62.031 16.6242 62.1071 17.1994 61.9632 17.7397L58.5068 28.7077C58.0459 28.7904 48.3683 31.1951 53.7878 14.3622C54.9767 10.7459 58.2302 4.12827 63.5483 2.85249L63.5208 2.86165Z" fill="#B7BFC7"/>
</g>
<defs>
<clipPath id="clip0_1_6243">
<rect width="72.6406" height="31.9965" fill="white" transform="translate(0.96875 0.00195312)"/>
</clipPath>
</defs>
</svg>
