<svg width="132" height="44" viewBox="0 0 132 44" fill="none" xmlns="http://www.w3.org/2000/svg">
<g clip-path="url(#clip0_1_6221)">
<mask id="mask0_1_6221" style="mask-type:luminance" maskUnits="userSpaceOnUse" x="0" y="0" width="132" height="44">
<path d="M0.28125 0.000976562H131.359V43.9992H0.28125V0.000976562Z" fill="white"/>
</mask>
<g mask="url(#mask0_1_6221)">
<path fill-rule="evenodd" clip-rule="evenodd" d="M0.28125 17.6012C0.28125 11.3012 4.8698 5.50098 13.5662 5.50098C20.5364 5.50098 25.9553 10.4541 25.9772 17.0798C25.9772 23.988 21.6071 29.5277 15.5327 29.5277C13.5007 29.5277 11.5778 28.4632 10.9224 27.2249C10.9224 27.2249 9.91718 31.0484 9.67684 31.9825C8.9995 34.5676 6.59597 38.1521 6.39932 38.4128C6.37746 38.4562 6.31191 38.4997 6.24637 38.4997C6.13711 38.4997 6.02786 38.4128 6.02786 38.3041C5.96231 37.9348 5.26311 33.6335 5.87491 30.9832C6.24637 29.4191 8.23474 21.0336 8.23474 21.0336C7.81959 20.0995 7.60108 19.0785 7.62293 18.0574C7.62293 15.2767 9.23985 13.1912 11.272 13.1912C12.9762 13.1912 13.8065 14.473 13.8065 16.0154C13.8065 17.0773 13.3883 18.4635 12.9452 19.9322C12.6721 20.8372 12.3896 21.7735 12.1896 22.6846C11.7089 24.6615 13.1948 26.2908 15.1613 26.2908C18.7229 26.2908 21.476 22.5542 21.476 17.145C21.476 12.3657 18.0237 9.02025 13.0855 9.02025C7.36073 9.02025 3.99579 13.2781 3.99579 17.6881C3.99579 19.4043 4.6513 21.2509 5.48161 22.2502C5.61271 22.4239 5.67826 22.6411 5.61271 22.8367C5.53328 23.1639 5.40081 23.6844 5.28264 24.1487C5.17326 24.5785 5.07611 24.9602 5.0446 25.096C4.9572 25.4653 4.76055 25.5304 4.36725 25.3567C1.85447 24.1835 0.28125 20.534 0.28125 17.6012ZM68.8056 21.2067C70.204 21.2067 70.6848 22.0539 70.6848 23.0533C70.6848 24.7476 69.3738 25.7687 67.298 25.7687C66.4896 25.747 65.6811 25.6166 64.9163 25.3994C65.1785 23.8353 66.1836 21.2067 68.8056 21.2067ZM98.631 21.2067C99.8987 21.2067 100.51 22.0539 100.51 23.0533C100.51 24.7476 99.1993 25.7687 97.1232 25.7687C96.3147 25.747 95.5062 25.6166 94.7418 25.3994C95.0039 23.8353 96.1405 21.2067 98.631 21.2067ZM126.905 21.337H130.074C130.511 21.337 130.773 21.1633 130.861 20.7505C130.916 20.5371 130.983 20.2662 131.05 19.9955C131.168 19.5218 131.285 19.048 131.341 18.8822C131.428 18.5129 131.232 18.2522 130.817 18.2522H127.67C127.708 18.0974 127.767 17.8814 127.838 17.6205C128.173 16.3802 128.785 14.122 128.785 12.5606C128.785 8.78058 125.551 5.56542 120.962 5.56542C115.784 5.56542 112.419 9.01954 112.419 13.8639C112.441 15.3195 112.855 16.7315 113.621 17.9698C113.337 17.9481 113.052 17.9481 112.768 17.9481C108.835 17.9481 106.366 20.077 106.366 23.1619C106.366 26.0511 108.661 27.1807 110.824 27.9411C111.118 28.0441 111.409 28.1385 111.689 28.2298C113.247 28.7355 114.516 29.148 114.516 30.4176C114.516 31.417 113.555 32.0035 111.633 32.0035C109.381 32.0035 108.136 30.939 107.808 30.548C108.158 30.2439 108.355 29.7876 108.333 29.3097C108.333 28.3756 107.677 27.637 106.454 27.637C105.427 27.637 104.552 28.4625 104.334 29.5704C102.673 30.9173 100.882 31.7863 98.3258 31.7863C95.7904 31.7863 94.5016 30.4828 94.5016 27.7021C95.0919 27.8759 96.6429 28.0932 97.6484 28.0932C101.909 28.0932 104.815 26.1597 104.815 22.2929C104.815 20.2074 102.98 18.035 99.3524 18.035H99.3304C94.5667 18.035 91.8795 21.0329 90.7214 24.3566C90.5576 24.3132 90.3937 24.2752 90.2298 24.2372C90.0659 24.1991 89.9021 24.1611 89.7382 24.1176C90.0441 23.3139 90.197 22.445 90.197 21.5977C90.197 19.9684 89.1701 18.035 86.4607 18.035C84.5597 18.035 82.7679 19.2733 81.5225 21.1198C81.6617 20.5661 81.7829 20.1023 81.8736 19.7552C81.9821 19.3398 82.0469 19.0915 82.0469 19.056C82.1343 18.7302 82.0032 18.3826 81.5007 18.3826H78.7039C78.3105 18.3826 78.0265 18.5129 77.9172 18.9691C77.8517 19.2733 76.8902 23.0315 75.9507 26.6594C75.3607 28.9404 72.3236 31.7645 68.4997 31.7645C65.987 31.7645 64.6759 30.3742 64.6759 27.5935C65.3315 27.8542 66.7955 28.0714 67.8224 28.0714C72.258 28.0714 75.0111 26.138 75.0111 22.2712C75.0111 20.1857 73.1758 18.0133 69.5486 18.0133H69.5267C64.1515 18.0133 60.874 22.1626 60.3059 26.8766C60.0656 28.8318 58.405 31.5256 56.6133 31.5256C55.7392 31.5256 55.2367 30.9825 55.2367 30.0483C55.2367 29.4136 55.5909 28.0609 56.052 26.3005C56.1748 25.8317 56.3052 25.3336 56.4385 24.8128C56.5795 24.2799 56.757 23.5657 56.9592 22.7524C57.0702 22.3062 57.1886 21.8295 57.3125 21.337H60.2404C60.6774 21.337 60.9177 21.1633 61.027 20.7505C61.1581 20.1639 61.4202 19.1429 61.5077 18.8822C61.595 18.5129 61.3984 18.2522 60.9833 18.2522H58.099C58.099 18.2522 59.4101 13.0167 59.4538 12.8646C59.5849 12.3216 59.126 12.0175 58.6671 12.1261C58.6671 12.1261 56.4385 12.5605 56.0233 12.6474C55.6081 12.7343 55.2804 12.9733 55.1274 13.5598L53.9475 18.2739H51.6532C51.2162 18.2739 50.954 18.4477 50.8666 18.8605C50.8111 19.0735 50.744 19.3439 50.6769 19.6143L50.6766 19.6152C50.5591 20.0891 50.4415 20.5629 50.3859 20.7288C50.2985 21.0981 50.4952 21.3588 50.9103 21.3588H53.1609C53.139 21.4239 52.3524 24.4435 51.6969 27.159C51.391 28.4625 50.364 31.5256 48.7035 31.5256C47.6983 31.5256 47.2831 31.0259 47.2831 29.9397C47.2831 29.118 47.6788 27.6986 48.0864 26.2364C48.5193 24.6834 48.9656 23.082 48.9656 22.0974C48.9656 19.5339 47.5891 18.035 44.7486 18.035C42.9568 18.035 41.0996 19.1864 40.3129 20.1857C40.3129 20.1857 40.5533 19.3602 40.6407 19.0343C40.7281 18.7736 40.5752 18.4912 40.3129 18.4043C40.2474 18.3826 40.16 18.3826 40.0945 18.3826H37.3413C36.7513 18.3826 36.5984 18.7084 36.511 19.0343C36.4874 19.1047 36.1896 20.2781 35.7693 21.9347C35.4114 23.3448 34.9647 25.105 34.5226 26.8332C33.8672 29.4183 32.272 31.569 30.5678 31.569C29.6937 31.569 29.3004 31.0259 29.3004 30.0918C29.3004 29.3874 29.7031 27.7825 30.2143 25.7446L30.2147 25.743C30.2868 25.4556 30.3611 25.1596 30.4367 24.8563C30.8394 23.2774 31.2119 21.8492 31.4838 20.8063C31.7281 19.8695 31.8915 19.2434 31.9224 19.0995C32.0099 18.7302 31.8569 18.426 31.3762 18.426H28.5794C28.0768 18.426 27.8802 18.6867 27.7927 19.056C27.7927 19.056 27.0062 22.0105 26.1758 25.3125C26.1206 25.5282 26.0651 25.7442 26.0096 25.9596L26.0087 25.9633C25.4504 28.1333 24.9085 30.2397 24.9085 31.2866C24.9085 33.3287 25.8262 34.871 28.3609 34.871C30.3055 34.871 31.8569 33.8935 33.0368 32.6335C32.9985 32.7811 32.9633 32.9173 32.9316 33.0404C32.8184 33.4784 32.748 33.751 32.7309 33.7849C32.6217 34.1758 32.7527 34.5235 33.2116 34.5235H36.074C36.5765 34.5235 36.7513 34.3279 36.8606 33.8935C36.9699 33.459 39.0893 25.1387 39.0893 25.1387C39.6574 22.9012 41.0558 21.4022 43.0224 21.4022C43.9619 21.4022 44.7486 22.0105 44.6611 23.2053C44.618 23.7206 44.3459 24.769 44.0328 25.976C43.5538 27.8219 42.9787 30.0388 42.9787 31.2866C42.9787 32.8507 43.5686 34.871 46.5184 34.871C48.5287 34.871 50.0363 33.9152 51.107 32.6552C51.5003 33.9804 52.5491 34.871 54.4719 34.871C57.6621 34.871 59.5849 32.9811 60.721 31.0911C61.6607 33.2852 63.8675 34.871 67.0795 34.871C69.9637 34.8927 72.7387 33.7197 74.7052 31.6125C74.5494 32.2115 74.4183 32.7221 74.3213 33.1C74.2142 33.517 74.1486 33.7724 74.1371 33.8066C74.0279 34.1976 74.2027 34.5235 74.6834 34.5235H77.5021C77.8735 34.5452 78.2013 34.2844 78.2668 33.9152C78.2856 33.8313 78.3728 33.495 78.5112 32.9617C78.6952 32.2526 78.9696 31.1949 79.2938 29.918C80.4081 25.6601 82.178 21.2284 84.8437 21.2284C85.7833 21.2284 86.1766 21.7498 86.1766 22.5753C86.1766 22.8795 86.1111 23.2053 85.9581 23.4876C84.6689 23.227 83.6201 23.857 83.6201 25.2256C83.6201 26.1163 84.5816 26.9418 85.8489 26.9418C86.8322 26.9418 87.6405 26.7028 88.2742 26.2683C88.5041 26.3191 88.7439 26.3699 88.9897 26.422C89.3747 26.5035 89.7753 26.5883 90.1752 26.6811C90.0878 27.2894 90.0222 27.9194 90.0222 28.5494C90.0222 31.9818 92.6005 34.8927 97.0141 34.8927C100.467 34.8927 102.695 33.7414 104.772 32.0252C105.754 33.6328 108.246 34.9144 111.501 34.9144C115.958 34.9144 118.515 32.6118 118.515 29.5487C118.515 26.7897 116.22 25.7687 113.883 24.9214C113.649 24.8371 113.421 24.7575 113.199 24.6805C111.596 24.1222 110.365 23.6935 110.365 22.5102C110.365 21.4022 111.239 20.9026 112.724 20.9026C113.424 20.9026 114.145 21.0112 114.822 21.2284C115.216 22.1843 116.002 23.2487 117.357 23.2487C118.515 23.2487 119.018 22.3364 119.018 21.5108C119.018 20.5515 118.365 19.938 117.588 19.2082C116.448 18.1365 115.041 16.8139 115.041 13.777C115.041 10.6054 116.855 7.99851 120.591 7.99851C123.191 7.99851 124.895 9.62783 124.895 12.2781C124.895 14.4505 123.562 18.3391 123.562 18.3391H121.312C120.875 18.3391 120.613 18.5129 120.525 18.9257C120.47 19.1387 120.403 19.4091 120.336 19.6795L120.335 19.6806C120.218 20.1542 120.1 20.6281 120.044 20.7939C119.957 21.1633 120.154 21.4239 120.569 21.4239H122.776C122.776 21.4239 120.504 29.7876 120.504 31.3083C120.504 33.3504 121.661 34.8927 124.196 34.8927C127.78 34.8927 130.03 32.5901 130.992 29.2228C131.057 29.049 130.992 28.8535 130.817 28.7666C130.773 28.7449 130.708 28.7449 130.664 28.7449H129.287C129.047 28.7449 128.828 28.9187 128.785 29.1576C128.478 30.3525 127.714 31.6125 126.206 31.6125C125.332 31.6125 124.829 31.0694 124.829 30.1352C124.829 29.4248 125.239 27.8829 125.802 25.7644C125.876 25.4859 125.953 25.1975 126.032 24.8997C126.359 23.5963 126.905 21.337 126.905 21.337ZM33.4717 13.9948C33.3625 15.4721 32.1389 16.6452 30.7186 16.6452C29.2983 16.6452 28.2277 15.4504 28.315 13.9948C28.4243 12.5176 29.6479 11.3445 31.0682 11.3445C32.4885 11.3445 33.5592 12.5393 33.4717 13.9948Z" fill="#B7BFC7"/>
</g>
</g>
<defs>
<clipPath id="clip0_1_6221">
<rect width="131.078" height="43.9983" fill="white" transform="translate(0.28125 0.000976562)"/>
</clipPath>
</defs>
</svg>
