<svg width="90" height="44" viewBox="0 0 90 44" fill="none" xmlns="http://www.w3.org/2000/svg">
<g clip-path="url(#clip0_1_6214)">
<mask id="mask0_1_6214" style="mask-type:luminance" maskUnits="userSpaceOnUse" x="0" y="0" width="90" height="44">
<path d="M0.65625 0.00244141H89.5625V43.9973H0.65625V0.00244141Z" fill="white"/>
</mask>
<g mask="url(#mask0_1_6214)">
<path fill-rule="evenodd" clip-rule="evenodd" d="M48.7876 3.66846V8.63679L42.5889 9.95844V4.96561L48.7876 3.66846ZM61.6796 11.4019C59.2593 11.4019 57.7035 12.5277 56.8391 13.3109L56.5181 11.7935H51.0849V40.3308L57.2589 39.0336L57.2836 32.1074C58.1727 32.7437 59.4816 33.6493 61.6549 33.6493C66.0755 33.6493 70.101 30.1249 70.101 22.3665C70.0763 15.2689 66.0014 11.4019 61.6796 11.4019ZM60.1978 28.2649C58.7407 28.2649 57.8763 27.7509 57.2836 27.1146L57.2589 18.0345C57.9011 17.3247 58.7901 16.8353 60.1978 16.8353C62.4451 16.8353 64.001 19.3316 64.001 22.5378C64.001 25.8174 62.4699 28.2649 60.1978 28.2649ZM89.5627 22.6113C89.5627 16.3458 86.5003 11.4019 80.6473 11.4019C74.7696 11.4019 71.2134 16.3458 71.2134 22.5623C71.2134 29.9292 75.4118 33.6492 81.4376 33.6492C84.3764 33.6492 86.5991 32.9885 88.2785 32.0584V27.1635C86.5991 27.9957 84.6729 28.5096 82.228 28.5096C79.8323 28.5096 77.7085 27.6775 77.4368 24.7895H89.5133C89.5133 24.6554 89.5221 24.3517 89.5322 24.0012L89.5324 23.9957V23.9944L89.5325 23.9935C89.5463 23.5142 89.5627 22.9493 89.5627 22.6113ZM77.3628 20.2861C77.3628 17.5205 79.0668 16.3702 80.6227 16.3702C82.1291 16.3702 83.7344 17.5205 83.7344 20.2861H77.3628ZM48.7876 11.8172H42.5889V33.2324H48.7876V11.8172ZM35.5533 11.8196L35.9484 13.6307C37.4055 10.9875 40.2949 11.5259 41.0853 11.8196V17.4487C40.3197 17.1795 37.85 16.8368 36.3929 18.7214V33.2348H30.2189V11.8196H35.5533ZM23.5987 6.50765L17.5729 7.78032L17.5481 27.3844C17.5481 31.0066 20.2894 33.6743 23.9445 33.6743C25.9695 33.6743 27.4513 33.3072 28.2663 32.8666V27.8983C27.476 28.2166 23.574 29.3424 23.574 25.7201V17.0317H28.2663V11.8186H23.574L23.5987 6.50765ZM9.00357 16.7129C7.69467 16.7129 6.90439 17.08 6.90439 18.0345C6.90439 19.0766 8.26447 19.5351 9.95185 20.1038C12.7025 21.031 16.323 22.2514 16.3383 26.7719C16.3383 31.1529 12.8067 33.6738 7.66997 33.6738C5.5461 33.6738 3.22466 33.2577 0.927908 32.2787V26.4538C3.00239 27.5796 5.62019 28.4117 7.66997 28.4117C9.05296 28.4117 10.0408 28.0446 10.0408 26.9187C10.0408 25.7644 8.56646 25.2367 6.78651 24.5997C4.07577 23.6296 0.65625 22.4058 0.65625 18.3282C0.65625 13.9962 3.99024 11.4019 9.00357 11.4019C11.0534 11.4019 13.0784 11.7201 15.1282 12.5277V18.2792C13.2513 17.2758 10.8805 16.7129 9.00357 16.7129Z" fill="#B7BFC7"/>
</g>
</g>
<defs>
<clipPath id="clip0_1_6214">
<rect width="88.9062" height="43.9948" fill="white" transform="translate(0.65625 0.00244141)"/>
</clipPath>
</defs>
</svg>
