<svg width="45" height="45" viewBox="0 0 45 45" fill="none" xmlns="http://www.w3.org/2000/svg">
<g clip-path="url(#clip0_1_6260)">
<path d="M22.6562 44.5C34.8065 44.5 44.6562 34.6503 44.6562 22.5C44.6562 10.3497 34.8065 0.5 22.6562 0.5C10.506 0.5 0.65625 10.3497 0.65625 22.5C0.65625 34.6503 10.506 44.5 22.6562 44.5Z" fill="white"/>
<mask id="mask0_1_6260" style="mask-type:luminance" maskUnits="userSpaceOnUse" x="12" y="11" width="22" height="23">
<path d="M12.0967 11.9399H33.2167V33.0599H12.0967V11.9399Z" fill="white"/>
</mask>
<g mask="url(#mask0_1_6260)">
<path d="M20.3464 23.8198C20.609 23.8198 20.8608 23.9241 21.0465 24.1098C21.2321 24.2954 21.3364 24.5473 21.3364 24.8098V26.7898C21.3364 27.0524 21.2321 27.3042 21.0465 27.4899C20.8608 27.6755 20.609 27.7798 20.3464 27.7798C20.0839 27.7798 19.8321 27.6755 19.6464 27.4899C19.4607 27.3042 19.3564 27.0524 19.3564 26.7898V24.8098C19.3564 24.5473 19.4607 24.2954 19.6464 24.1098C19.8321 23.9241 20.0839 23.8198 20.3464 23.8198ZM25.9564 24.8098C25.9564 24.5473 25.8521 24.2954 25.6665 24.1098C25.4808 23.9241 25.229 23.8198 24.9664 23.8198C24.7039 23.8198 24.4521 23.9241 24.2664 24.1098C24.0807 24.2954 23.9764 24.5473 23.9764 24.8098V26.7898C23.9764 27.0524 24.0807 27.3042 24.2664 27.4899C24.4521 27.6755 24.7039 27.7798 24.9664 27.7798C25.229 27.7798 25.4808 27.6755 25.6665 27.4899C25.8521 27.3042 25.9564 27.0524 25.9564 26.7898V24.8098Z" fill="#24292F"/>
<path fill-rule="evenodd" clip-rule="evenodd" d="M22.473 14.2763C22.539 14.3456 22.5995 14.4182 22.6567 14.493C22.7139 14.4182 22.7755 14.3456 22.8404 14.2763C23.7402 13.3116 25.1339 13.0883 26.7256 13.2665C28.3503 13.4469 29.5581 13.9628 30.3226 14.9297C31.0684 15.8746 31.2367 17.0604 31.2367 18.2099C31.2367 18.9656 31.1663 19.7246 30.9012 20.3945L31.1223 21.5011L31.2103 21.5451C31.8131 21.8466 32.3201 22.3099 32.6745 22.8832C33.0288 23.4565 33.2166 24.1172 33.2167 24.7912V26.4599C33.2167 26.7767 33.1034 27.0385 33.011 27.2079C32.912 27.3894 32.7877 27.5533 32.67 27.6919C32.4246 27.9687 32.1571 28.2251 31.8703 28.4586C31.5997 28.6841 31.3324 28.8832 31.1355 29.0262C30.8198 29.2539 30.4964 29.464 30.1576 29.6587C29.7528 29.8919 29.1698 30.1999 28.4471 30.5057C27.0061 31.1173 24.9744 31.7399 22.6567 31.7399C20.339 31.7399 18.3062 31.1173 16.8663 30.5068C16.2797 30.2589 15.7085 29.976 15.1558 29.6598C14.8187 29.4657 14.4919 29.2542 14.1768 29.0262C13.981 28.8832 13.7137 28.6841 13.4431 28.4575C13.178 28.2375 12.8821 27.9691 12.6445 27.6919C12.5144 27.5428 12.4001 27.3806 12.3035 27.2079C12.1732 26.9797 12.1021 26.7226 12.0967 26.4599V24.7912C12.0968 24.1172 12.2845 23.4565 12.6389 22.8832C12.9933 22.3099 13.5003 21.8466 14.1031 21.5451L14.1911 21.5011L14.4122 20.3945C14.146 19.7235 14.0767 18.9645 14.0767 18.2099C14.0767 17.0604 14.245 15.8746 14.9908 14.9297C15.7553 13.9628 16.9631 13.4469 18.5878 13.2665C20.1795 13.0894 21.5732 13.3105 22.473 14.2763ZM16.0875 22.116L16.0567 22.2678V27.8921L16.1436 27.9427C16.4912 28.1429 17.0016 28.4124 17.6396 28.6841C18.9222 29.2275 20.6844 29.7599 22.6567 29.7599C24.629 29.7599 26.3912 29.2275 27.6738 28.6841C28.2176 28.4539 28.7463 28.1893 29.2567 27.8921V22.2689L29.2259 22.1171C28.5791 22.3932 27.8069 22.5021 26.9467 22.5021C25.4331 22.5021 24.2286 22.0687 23.3695 21.1931C23.0863 20.9017 22.8462 20.5713 22.6567 20.2119C22.4671 20.5713 22.2271 20.9017 21.9439 21.1931C21.0859 22.0687 19.8803 22.5021 18.3667 22.5021C17.5054 22.5021 16.7343 22.3932 16.0875 22.1171V22.116ZM21.0254 15.626C20.7702 15.3543 20.1839 15.0804 18.8056 15.2344C17.4603 15.384 16.8531 15.7679 16.5451 16.1584C16.2184 16.5709 16.0567 17.199 16.0567 18.2099C16.0567 19.2549 16.2272 19.7554 16.4637 20.0194C16.6782 20.2581 17.149 20.5199 18.3667 20.5199C19.4931 20.5199 20.1344 20.2086 20.5293 19.806C20.9451 19.3814 21.2245 18.7159 21.3433 17.7578C21.4984 16.5225 21.2949 15.9142 21.0254 15.626ZM24.288 15.626C24.5432 15.3543 25.1295 15.0804 26.5078 15.2344C27.8531 15.384 28.4603 15.7679 28.7683 16.1584C29.095 16.5709 29.2567 17.199 29.2567 18.2099C29.2567 19.2549 29.0862 19.7554 28.8497 20.0194C28.6352 20.2581 28.1644 20.5199 26.9467 20.5199C25.8203 20.5199 25.179 20.2086 24.7841 19.806C24.3683 19.3814 24.0889 18.7159 23.969 17.7578C23.815 16.5225 24.0185 15.9142 24.288 15.626Z" fill="#24292F"/>
</g>
</g>
<defs>
<clipPath id="clip0_1_6260">
<rect width="44" height="44" fill="white" transform="translate(0.65625 0.5)"/>
</clipPath>
</defs>
</svg>
