<svg width="18" height="18" viewBox="0 0 18 18" fill="none" xmlns="http://www.w3.org/2000/svg">
<path d="M16.9481 0H0.93513C0.674769 0.0236727 0.433191 0.145601 0.259503 0.341C0.0858142 0.5364 -0.00695009 0.790606 6.56119e-05 1.05195V16.9481C-0.00695009 17.2094 0.0858142 17.4636 0.259503 17.659C0.433191 17.8544 0.674769 17.9763 0.93513 18H9.4676V10.987H7.12994V8.2987H9.4676V6.31169C9.39122 5.44702 9.653 4.5864 10.1979 3.91071C10.7428 3.23501 11.5284 2.79685 12.3897 2.68831H12.9741C13.6774 2.66895 14.3811 2.70805 15.078 2.8052V5.25974H13.5585C12.3897 5.25974 12.2728 5.84416 12.2728 6.54545V8.2987H14.9611L14.6105 10.987H12.2728V17.8831H16.8312C17.0926 17.8901 17.3468 17.7974 17.5422 17.6237C17.7376 17.45 17.8595 17.2084 17.8832 16.9481V0.935065C17.8668 0.692474 17.763 0.464053 17.5911 0.292123C17.4191 0.120193 17.1907 0.0164093 16.9481 0Z" fill="#959DA5"/>
</svg>
